<svg width="270" height="62" viewBox="0 0 270 62" fill="none" xmlns="http://www.w3.org/2000/svg">
<path d="M24.768 49.088C23.0613 49.088 21.568 48.7253 20.288 48C19.0507 47.3173 18.432 46.1013 18.432 44.352C18.432 43.2427 18.7093 42.0053 19.264 40.64C20.032 41.4933 20.736 42.0907 21.376 42.432C22.0587 42.7733 22.784 42.944 23.552 42.944C25.6853 42.944 27.264 41.7493 28.288 39.36C29.3547 36.9707 29.888 34.3253 29.888 31.424C29.888 26.0053 27.8613 23.296 23.808 23.296C22.656 23.296 21.6747 23.36 20.864 23.488L15.616 48H6.4L15.104 7.296L24.576 6.016L21.568 20.224H21.952C23.5733 20.224 25.088 19.712 26.496 18.688C27.904 17.6213 29.0347 16.2987 29.888 14.72C30.7413 13.0987 31.168 11.4773 31.168 9.856C31.168 7.89333 30.464 6.25067 29.056 4.928C27.6907 3.60533 25.5787 2.944 22.72 2.944C20.1173 2.944 17.5787 3.54133 15.104 4.736C12.6293 5.888 10.6027 7.63733 9.024 9.984C7.488 12.3307 6.72 15.168 6.72 18.496C6.72 20.0747 6.86933 21.184 7.168 21.824C7.46667 22.4213 7.616 22.7627 7.616 22.848C5.35467 22.848 3.648 22.4 2.496 21.504C1.344 20.5653 0.768 19.0507 0.768 16.96C0.768 14.0587 1.856 11.3067 4.032 8.704C6.208 6.10133 9.088 4.01067 12.672 2.432C16.256 0.810664 20.032 -3.8147e-06 24 -3.8147e-06C26.9867 -3.8147e-06 29.504 0.46933 31.552 1.408C33.6 2.34666 35.1147 3.584 36.096 5.12C37.12 6.656 37.632 8.34133 37.632 10.176C37.632 12.1387 37.0773 14.0373 35.968 15.872C34.8587 17.7067 33.28 19.2 31.232 20.352C33.792 20.8213 35.6907 22.016 36.928 23.936C38.1653 25.8133 38.784 28.0533 38.784 30.656C38.784 33.088 38.3147 35.7333 37.376 38.592C36.48 41.4507 34.9653 43.9253 32.832 46.016C30.7413 48.064 28.0533 49.088 24.768 49.088ZM47.336 48.384C45.288 48.384 43.624 47.744 42.344 46.464C41.1067 45.184 40.488 43.264 40.488 40.704C40.488 39.6373 40.6587 38.2507 41 36.544L47.848 4.48L57.32 3.2L49.96 37.76C49.7893 38.4 49.704 39.0827 49.704 39.808C49.704 40.6613 49.896 41.28 50.28 41.664C50.7067 42.0053 51.3893 42.176 52.328 42.176C53.5653 42.176 54.7173 41.664 55.784 40.64C56.8507 39.5733 57.6187 38.208 58.088 36.544H60.776C59.1973 41.152 57.1707 44.288 54.696 45.952C52.2213 47.5733 49.768 48.384 47.336 48.384ZM65.7425 48.384C63.3105 48.384 61.2838 47.552 59.6625 45.888C58.0412 44.224 57.2305 41.6213 57.2305 38.08C57.2305 34.9227 57.8492 31.616 59.0865 28.16C60.3665 24.6613 62.2438 21.7173 64.7185 19.328C67.2358 16.896 70.2225 15.68 73.6785 15.68C75.4278 15.68 76.7292 15.9787 77.5825 16.576C78.4358 17.1733 78.8625 17.9627 78.8625 18.944V19.392L79.5665 16H88.7825L84.1745 37.76C84.0038 38.4 83.9185 39.0827 83.9185 39.808C83.9185 41.6427 84.7932 42.56 86.5425 42.56C87.7372 42.56 88.7612 42.0053 89.6145 40.896C90.5105 39.7867 91.2145 38.336 91.7265 36.544H94.4145C92.8358 41.152 90.8732 44.288 88.5265 45.952C86.2225 47.5733 83.8972 48.384 81.5505 48.384C79.7585 48.384 78.3078 47.8933 77.1985 46.912C76.1318 45.888 75.4918 44.416 75.2785 42.496C74.0412 44.2453 72.6545 45.6747 71.1185 46.784C69.6252 47.8507 67.8332 48.384 65.7425 48.384ZM69.9025 42.176C70.9692 42.176 72.0145 41.6853 73.0385 40.704C74.1052 39.68 74.8305 38.2933 75.2145 36.544L78.2865 22.08C78.2865 21.5253 78.0732 20.992 77.6465 20.48C77.2198 19.9253 76.5585 19.648 75.6625 19.648C73.9558 19.648 72.4198 20.6507 71.0545 22.656C69.6892 24.6187 68.6225 27.008 67.8545 29.824C67.0865 32.5973 66.7025 35.0507 66.7025 37.184C66.7025 39.3173 67.0012 40.6827 67.5985 41.28C68.2385 41.8773 69.0065 42.176 69.9025 42.176ZM100.902 48.384C97.7447 48.384 95.2913 47.5733 93.542 45.952C91.7927 44.288 90.918 41.7067 90.918 38.208C90.918 35.264 91.494 32.0213 92.646 28.48C93.8407 24.9387 95.718 21.888 98.278 19.328C100.881 16.7253 104.166 15.424 108.134 15.424C110.694 15.424 112.507 15.9787 113.574 17.088C114.683 18.1973 115.238 19.6053 115.238 21.312C115.238 22.8053 114.918 23.9573 114.278 24.768C113.638 25.5787 112.827 25.984 111.846 25.984C111.121 25.984 110.374 25.728 109.606 25.216C110.118 23.808 110.374 22.5493 110.374 21.44C110.374 20.6293 110.225 19.9893 109.926 19.52C109.627 19.0507 109.179 18.816 108.582 18.816C107.302 18.816 106.022 19.8613 104.742 21.952C103.462 24.0427 102.417 26.5813 101.606 29.568C100.795 32.5547 100.39 35.2427 100.39 37.632C100.39 39.7227 100.753 41.152 101.478 41.92C102.203 42.6453 103.377 43.008 104.998 43.008C107.302 43.008 109.265 42.4747 110.886 41.408C112.55 40.3413 114.363 38.72 116.326 36.544H118.502C113.766 44.4373 107.899 48.384 100.902 48.384ZM140.377 48.384C137.731 48.384 135.726 47.7653 134.361 46.528C132.995 45.248 132.312 43.4347 132.312 41.088C132.312 40.064 132.441 38.9547 132.697 37.76L133.208 35.264C133.379 34.5387 133.465 33.7493 133.465 32.896C133.465 30.848 132.697 29.824 131.161 29.824C130.478 29.824 129.753 30.016 128.985 30.4C128.259 30.784 127.406 31.3813 126.425 32.192L123.097 48H113.88L123.161 4.48L132.633 3.2L127.833 25.728L140.185 16H146.521L133.721 24.896C134.361 24.7253 135.065 24.64 135.833 24.64C138.137 24.64 139.886 25.344 141.081 26.752C142.275 28.16 142.873 29.952 142.873 32.128C142.873 33.024 142.787 33.8347 142.617 34.56L141.913 37.76C141.699 38.528 141.593 39.2107 141.593 39.808C141.593 41.3867 142.425 42.176 144.089 42.176C145.027 42.176 145.625 42.112 145.881 41.984C146.137 41.856 146.286 41.792 146.329 41.792C146.243 43.2 145.838 44.3947 145.113 45.376C144.43 46.3573 143.619 47.104 142.681 47.616C141.785 48.128 141.017 48.384 140.377 48.384Z" fill="url(#paint0_linear_13_3)"/>
<path d="M157.06 61.248C154.031 61.248 151.684 60.416 150.02 58.752C148.399 57.1307 147.588 54.9547 147.588 52.224C147.588 49.92 148.292 47.9147 149.7 46.208C151.108 44.5013 153.007 43.648 155.396 43.648C157.231 43.648 158.724 43.9253 159.876 44.48C161.071 44.992 161.668 46.144 161.668 47.936C161.668 48.704 161.54 49.5573 161.284 50.496C160.516 49.856 159.855 49.408 159.3 49.152C158.745 48.9387 158.127 48.832 157.444 48.832C156.036 48.832 154.927 49.3013 154.116 50.24C153.348 51.1787 152.964 52.288 152.964 53.568C152.964 55.0613 153.412 56.1707 154.308 56.896C155.204 57.664 156.207 58.048 157.316 58.048C158.34 58.048 159.193 57.8347 159.876 57.408C160.601 57.024 161.241 56.256 161.796 55.104C162.351 53.9947 162.884 52.352 163.396 50.176L173.444 4.48C170.585 5.632 168.367 7.40266 166.788 9.792C165.209 12.1813 164.42 15.0827 164.42 18.496C164.42 20.0747 164.569 21.184 164.868 21.824C165.167 22.4213 165.316 22.7627 165.316 22.848C163.012 22.848 161.284 22.3787 160.132 21.44C159.023 20.4587 158.468 18.8587 158.468 16.64C158.468 13.9093 159.577 11.264 161.796 8.704C164.057 6.10133 166.937 4.01067 170.436 2.432C173.935 0.810664 177.433 -3.8147e-06 180.932 -3.8147e-06H183.492L173.892 45.44C172.783 50.688 170.948 54.6347 168.388 57.28C165.828 59.9253 162.052 61.248 157.06 61.248ZM188.493 48.384C186.061 48.384 184.034 47.552 182.413 45.888C180.791 44.224 179.98 41.6213 179.98 38.08C179.98 34.9227 180.599 31.616 181.837 28.16C183.117 24.6613 184.994 21.7173 187.469 19.328C189.986 16.896 192.973 15.68 196.429 15.68C198.178 15.68 199.479 15.9787 200.333 16.576C201.186 17.1733 201.613 17.9627 201.613 18.944V19.392L202.317 16H211.533L206.925 37.76C206.754 38.4 206.669 39.0827 206.669 39.808C206.669 41.6427 207.543 42.56 209.293 42.56C210.487 42.56 211.511 42.0053 212.365 40.896C213.261 39.7867 213.965 38.336 214.477 36.544H217.165C215.586 41.152 213.623 44.288 211.277 45.952C208.973 47.5733 206.647 48.384 204.301 48.384C202.509 48.384 201.058 47.8933 199.949 46.912C198.882 45.888 198.242 44.416 198.029 42.496C196.791 44.2453 195.405 45.6747 193.869 46.784C192.375 47.8507 190.583 48.384 188.493 48.384ZM192.653 42.176C193.719 42.176 194.765 41.6853 195.789 40.704C196.855 39.68 197.581 38.2933 197.965 36.544L201.037 22.08C201.037 21.5253 200.823 20.992 200.397 20.48C199.97 19.9253 199.309 19.648 198.413 19.648C196.706 19.648 195.17 20.6507 193.805 22.656C192.439 24.6187 191.373 27.008 190.605 29.824C189.837 32.5973 189.453 35.0507 189.453 37.184C189.453 39.3173 189.751 40.6827 190.349 41.28C190.989 41.8773 191.757 42.176 192.653 42.176ZM223.652 48.384C220.495 48.384 218.041 47.5733 216.292 45.952C214.543 44.288 213.668 41.7067 213.668 38.208C213.668 35.264 214.244 32.0213 215.396 28.48C216.591 24.9387 218.468 21.888 221.028 19.328C223.631 16.7253 226.916 15.424 230.884 15.424C233.444 15.424 235.257 15.9787 236.324 17.088C237.433 18.1973 237.988 19.6053 237.988 21.312C237.988 22.8053 237.668 23.9573 237.028 24.768C236.388 25.5787 235.577 25.984 234.596 25.984C233.871 25.984 233.124 25.728 232.356 25.216C232.868 23.808 233.124 22.5493 233.124 21.44C233.124 20.6293 232.975 19.9893 232.676 19.52C232.377 19.0507 231.929 18.816 231.332 18.816C230.052 18.816 228.772 19.8613 227.492 21.952C226.212 24.0427 225.167 26.5813 224.356 29.568C223.545 32.5547 223.14 35.2427 223.14 37.632C223.14 39.7227 223.503 41.152 224.228 41.92C224.953 42.6453 226.127 43.008 227.748 43.008C230.052 43.008 232.015 42.4747 233.636 41.408C235.3 40.3413 237.113 38.72 239.076 36.544H241.252C236.516 44.4373 230.649 48.384 223.652 48.384ZM263.127 48.384C260.481 48.384 258.476 47.7653 257.111 46.528C255.745 45.248 255.062 43.4347 255.062 41.088C255.062 40.064 255.191 38.9547 255.447 37.76L255.958 35.264C256.129 34.5387 256.215 33.7493 256.215 32.896C256.215 30.848 255.447 29.824 253.911 29.824C253.228 29.824 252.503 30.016 251.735 30.4C251.009 30.784 250.156 31.3813 249.175 32.192L245.847 48H236.63L245.911 4.48L255.383 3.2L250.583 25.728L262.935 16H269.271L256.471 24.896C257.111 24.7253 257.815 24.64 258.583 24.64C260.887 24.64 262.636 25.344 263.831 26.752C265.025 28.16 265.623 29.952 265.623 32.128C265.623 33.024 265.537 33.8347 265.367 34.56L264.663 37.76C264.449 38.528 264.343 39.2107 264.343 39.808C264.343 41.3867 265.175 42.176 266.839 42.176C267.777 42.176 268.375 42.112 268.631 41.984C268.887 41.856 269.036 41.792 269.079 41.792C268.993 43.2 268.588 44.3947 267.863 45.376C267.18 46.3573 266.369 47.104 265.431 47.616C264.535 48.128 263.767 48.384 263.127 48.384Z" fill="url(#paint1_linear_13_3)"/>
<defs>
<linearGradient id="paint0_linear_13_3" x1="135" y1="-16" x2="135" y2="64" gradientUnits="userSpaceOnUse">
<stop offset="0.39375"/>
<stop offset="0.534375" stop-color="white" stop-opacity="0.75"/>
<stop offset="0.669792"/>
</linearGradient>
<linearGradient id="paint1_linear_13_3" x1="135" y1="-16" x2="135" y2="64" gradientUnits="userSpaceOnUse">
<stop offset="0.378125" stop-color="#FFC700"/>
<stop offset="0.560417" stop-color="white" stop-opacity="0.75"/>
<stop offset="0.758333" stop-color="#FFC700"/>
</linearGradient>
</defs>
</svg>
