<svg width="88" height="89" viewBox="0 0 88 89" fill="none" xmlns="http://www.w3.org/2000/svg">
<g filter="url(#filter0_d_11_65)">
<path opacity="0.75" d="M20.5003 75.7495C19.7003 75.2245 18.6752 75.1494 17.8253 75.5995C17.8253 75.5995 17.8253 75.5995 17.8003 75.5995C14.0003 77.5495 13.5753 72.7994 10.0754 73.8245C6.92541 74.7495 -0.0496063 77.0994 3.07535 79.2745C5.4503 80.9495 8.20037 79.0994 9.95031 80.1244C13.3253 82.0744 13.1254 82.6744 15.9753 81.7494C21.4002 79.9744 20.2002 82.0495 24.1003 82.7744C26.9253 83.2994 30.2752 82.3494 31.8502 80.7494C27.8002 79.6744 23.9752 77.9745 20.5003 75.7495Z" fill="url(#paint0_linear_11_65)"/>
<path d="M19.2753 74.9247C18.8002 75.1247 18.3252 75.3497 17.8002 75.5997C14.0003 77.5497 13.7253 73.8247 10.0753 73.8247C6.70031 73.8247 -0.0496516 77.0998 3.07534 79.2747C5.45029 80.9497 8.20036 79.0997 9.95031 80.1247C13.3252 82.0746 13.1252 82.6747 15.9753 81.7497C21.4002 79.9747 20.2002 82.0497 24.1002 82.7747C26.9252 83.2997 30.2752 82.3496 31.8502 80.7497C27.3001 79.5497 23.0502 77.5497 19.2753 74.9247Z" fill="url(#paint1_linear_11_65)"/>
<path d="M42.0004 81.9995C64.0916 81.9995 82.0002 64.0911 82.0002 41.9997C82.0002 19.9085 64.0916 2 42.0004 2C19.9092 2 2.00064 19.9085 2.00064 41.9997C2.00064 64.0911 19.9092 81.9995 42.0004 81.9995Z" fill="url(#paint2_radial_11_65)"/>
<path opacity="0.5" d="M82 41.9997C82 64.0996 64.1001 81.8745 42.0002 81.9995C20.0504 82.0995 2.10041 64.1747 2.00041 41.9997C1.90042 19.8998 19.9003 2 42.0002 2C64.1001 2 82 19.8998 82 41.9997Z" fill="url(#paint3_radial_11_65)"/>
<path d="M28.6754 35.0746C30.0003 33.7495 23.0254 34.2745 19.8504 36.3496C18.2004 37.4245 11.8504 38.1746 15.0504 71.5744C18.5253 74.7744 22.5754 77.3493 27.0004 79.1493C17.2755 55.8245 26.7754 36.9746 28.6754 35.0746Z" fill="url(#paint4_linear_11_65)"/>
<path d="M31.8003 70.575C36.4253 68.9001 38.7753 67.8001 42.0002 67.8001C45.2253 67.8001 47.6002 68.9001 52.2001 70.575C56.5001 72.125 58.9001 68.9001 58.4251 64.2001C56.7501 54.3001 49.5502 46.7002 42.0002 46.7002C34.6753 46.7002 27.6753 53.7001 25.7253 63.1C24.7253 68.3751 27.1753 72.225 31.8003 70.575Z" fill="url(#paint5_radial_11_65)"/>
<path d="M56.9002 58.8251C53.9752 51.6751 48.1002 46.7002 42.0002 46.7002C35.9003 46.7002 30.0253 51.6751 27.1003 58.8251C27.1753 58.6751 29.0503 54.775 32.9253 55.6001C36.8752 56.45 42.0002 56.5501 42.0002 56.5501C42.0002 56.5501 47.1002 56.4251 51.0752 55.6001C55.0501 54.775 56.9002 58.8251 56.9002 58.8251Z" fill="url(#paint6_linear_11_65)"/>
<path d="M42.0002 54.1247C45.2502 54.1247 48.5002 53.9747 51.7251 53.6497C51.4251 53.2998 51.1252 52.9747 50.8002 52.6497C48.1502 49.9747 45.0253 48.4998 42.0002 48.4998C38.9752 48.4998 35.8503 49.9747 33.2002 52.6497C32.8753 52.9747 32.5752 53.2998 32.2753 53.6497C35.5002 53.9747 38.7502 54.1247 42.0002 54.1247Z" fill="url(#paint7_radial_11_65)"/>
<path d="M41.9999 61.4502C37.325 61.4502 30.7251 63.4502 29.2001 69.4001C30.325 69.0751 31.65 68.5501 32.6251 68.1751C35.5501 67.0501 38.8499 66.0001 41.975 66.0001C45.1 66.0001 48.3999 67.2752 51.3249 68.4252C52.3 68.8002 53.6499 69.3251 54.7749 69.6501C53.3 63.5751 46.675 61.4502 41.9999 61.4502Z" fill="url(#paint8_radial_11_65)"/>
<path d="M17.4005 23.1745C17.5005 24.7746 19.2755 25.6745 22.2504 25.5245C24.7754 25.3745 30.2504 23.6746 33.8003 18.5495C34.4504 17.5996 33.3504 17.1746 32.6754 17.7996C30.4254 19.9245 24.2754 22.8495 19.3255 22.5746C17.3505 22.4745 17.4005 23.1745 17.4005 23.1745Z" fill="url(#paint9_linear_11_65)"/>
<path d="M26.2251 30.15C26.2251 30.15 33.4501 29.775 36.3001 34.45C36.475 34.75 36.6001 35.075 36.6501 35.4C36.7501 36.075 36.2251 36.85 34.85 36.3999C26.35 33.5749 22.0002 35.65 18.7002 37.1499C17.4252 37.7249 16.0001 36.5 16.4751 35.45C18.8251 30.15 26.2251 30.15 26.2251 30.15Z" fill="url(#paint10_radial_11_65)"/>
<path d="M26.2253 30.15C26.2253 30.15 33.4503 29.775 36.3002 34.45C36.4002 34.6249 36.5002 34.8 36.5502 34.9999C32.2502 31.4249 26.3502 31.75 26.3502 31.75C26.3502 31.75 20.8503 31.45 16.7504 34.9C19.3503 30.15 26.2253 30.15 26.2253 30.15Z" fill="url(#paint11_linear_11_65)"/>
<path d="M66.5999 23.1745C66.4999 24.7746 64.7248 25.6745 61.7499 25.5245C59.225 25.3745 53.7499 23.6746 50.2 18.5495C49.5499 17.5996 50.6499 17.1746 51.3249 17.7996C53.575 19.9245 59.7249 22.8495 64.675 22.5746C66.6499 22.4745 66.5999 23.1745 66.5999 23.1745Z" fill="url(#paint12_linear_11_65)"/>
<path d="M57.7752 30.15C57.7752 30.15 50.5502 29.775 47.7002 34.45C47.5253 34.75 47.4002 35.075 47.3502 35.4C47.2502 36.075 47.7752 36.85 49.1502 36.3999C57.6501 33.5749 62.0001 35.65 65.3001 37.1499C66.5751 37.7249 68 36.5 67.525 35.45C65.1752 30.15 57.7752 30.15 57.7752 30.15Z" fill="url(#paint13_radial_11_65)"/>
<path d="M57.7749 30.15C57.7749 30.15 50.5499 29.775 47.7 34.45C47.6 34.6249 47.5 34.8 47.45 34.9999C51.7499 31.4249 57.65 31.75 57.65 31.75C57.65 31.75 63.1498 31.45 67.2498 34.9C64.6499 30.15 57.7749 30.15 57.7749 30.15Z" fill="url(#paint14_linear_11_65)"/>
<path d="M12.4255 79.3245C10.5506 36.8247 17.9005 36.6248 19.7754 35.6248C23.1005 33.8247 28.9255 33.1997 28.6754 35.0747C28.4005 37.1747 17.4256 39.1997 22.3004 79.3245" fill="url(#paint15_linear_11_65)"/>
<path opacity="0.75" d="M20.5003 75.7497C19.7004 75.2247 18.6753 75.1497 17.8253 75.5998C17.8253 75.5998 17.8253 75.5998 17.8004 75.5998C14.0003 77.5498 13.7254 73.8748 10.0755 73.8248C6.95042 73.7748 -0.049521 77.0997 3.07542 79.2748C5.4505 80.9496 8.20044 79.0997 9.95038 80.1247C13.3255 82.0747 13.1254 82.6747 15.9754 81.7497C21.4003 79.9747 20.2004 82.0496 24.1004 82.7747C26.9254 83.2997 30.2752 82.3497 31.8502 80.7497C27.8003 79.6747 23.9753 77.9747 20.5003 75.7497Z" fill="url(#paint16_linear_11_65)"/>
<path opacity="0.65" d="M12.4255 79.3245C10.5506 36.8247 17.9005 36.6248 19.7754 35.6248C23.1005 33.8247 28.9255 33.1997 28.6754 35.0747C28.4005 37.1747 17.4256 39.1997 22.3004 79.3245" fill="url(#paint17_linear_11_65)"/>
<path opacity="0.75" d="M12.4255 79.3245C10.5506 36.8247 17.9005 36.6248 19.7754 35.6248C23.1005 33.8247 28.9255 33.1997 28.6754 35.0747C28.4005 37.1747 17.4256 39.1997 22.3004 79.3245" fill="url(#paint18_linear_11_65)"/>
<path d="M12.4255 79.3245C10.5506 36.8247 17.9005 36.6248 19.7754 35.6248C23.1005 33.8247 28.9255 33.1997 28.6754 35.0747C28.4005 37.1747 17.4256 39.1997 22.3004 79.3245" fill="url(#paint19_linear_11_65)"/>
<path opacity="0.75" d="M63.5002 75.7495C64.3003 75.2245 65.3252 75.1494 66.1752 75.5995H66.2002C70.0001 77.5495 70.4251 72.7994 73.9252 73.8245C77.0751 74.7495 84.0501 77.0994 80.9251 79.2745C78.5501 80.9495 75.8002 79.0994 74.0501 80.1244C70.6752 82.0744 70.8752 82.6744 68.0252 81.7494C62.6002 79.9744 63.8002 82.0495 59.9003 82.7744C57.0752 83.2994 53.7252 82.3494 52.1503 80.7494C56.2002 79.6744 60.0252 77.9745 63.5002 75.7495Z" fill="url(#paint20_linear_11_65)"/>
<path d="M64.7252 74.9247C65.2002 75.1247 65.6752 75.3497 66.2002 75.5997C70.0001 77.5497 70.2751 73.8247 73.9252 73.8247C77.3001 73.8247 84.0501 77.0998 80.9251 79.2747C78.5501 80.9497 75.8002 79.0997 74.0501 80.1247C70.6752 82.0746 70.8752 82.6747 68.0252 81.7497C62.6002 79.9747 63.8002 82.0497 59.9003 82.7747C57.0752 83.2997 53.7252 82.3496 52.1503 80.7497C56.7003 79.5497 60.9502 77.5497 64.7252 74.9247Z" fill="url(#paint21_linear_11_65)"/>
<path d="M55.325 35.0746C54.0001 33.7495 60.9749 34.2745 64.15 36.3496C65.7999 37.4245 72.1499 38.1746 68.9499 71.5744C65.4749 74.7744 61.425 77.3493 57 79.1493C66.7249 55.8245 57.225 36.9746 55.325 35.0746Z" fill="url(#paint22_linear_11_65)"/>
<path d="M71.575 79.3245C73.45 36.8247 66.1001 36.6248 64.225 35.6248C60.9 33.8247 55.075 33.1997 55.325 35.0747C55.6 37.1747 66.5751 39.1997 61.7001 79.3245" fill="url(#paint23_linear_11_65)"/>
<path opacity="0.75" d="M63.5002 75.7497C64.3003 75.2247 65.3252 75.1497 66.1752 75.5998H66.2002C70.0001 77.5498 70.2751 73.8748 73.9252 73.8248C77.0501 73.7748 84.0501 77.0997 80.9251 79.2748C78.5501 80.9496 75.8002 79.0997 74.0501 80.1247C70.6752 82.0747 70.8752 82.6747 68.0252 81.7497C62.6002 79.9747 63.8002 82.0496 59.9003 82.7747C57.0752 83.2997 53.7252 82.3497 52.1503 80.7497C56.2002 79.6747 60.0252 77.9747 63.5002 75.7497Z" fill="url(#paint24_linear_11_65)"/>
<path opacity="0.65" d="M71.575 79.3245C73.45 36.8247 66.1001 36.6248 64.225 35.6248C60.9 33.8247 55.075 33.1997 55.325 35.0747C55.6 37.1747 66.5751 39.1997 61.7001 79.3245" fill="url(#paint25_linear_11_65)"/>
<path opacity="0.75" d="M71.575 79.3245C73.45 36.8247 66.1001 36.6248 64.225 35.6248C60.9 33.8247 55.075 33.1997 55.325 35.0747C55.6 37.1747 66.5751 39.1997 61.7001 79.3245" fill="url(#paint26_linear_11_65)"/>
<path d="M71.575 79.3245C73.45 36.8247 66.1001 36.6248 64.225 35.6248C60.9 33.8247 55.075 33.1997 55.325 35.0747C55.6 37.1747 66.5751 39.1997 61.7001 79.3245" fill="url(#paint27_linear_11_65)"/>
<path opacity="0.5" d="M82 41.9997C82 64.0996 64.1001 81.8745 42.0002 81.9995C20.0504 82.0995 2.10041 64.1747 2.00041 41.9997C1.90042 19.8998 19.9003 2 42.0002 2C64.1001 2 82 19.8998 82 41.9997Z" fill="url(#paint28_radial_11_65)"/>
</g>
<defs>
<filter id="filter0_d_11_65" x="0" y="0" width="88.0002" height="88.9199" filterUnits="userSpaceOnUse" color-interpolation-filters="sRGB">
<feFlood flood-opacity="0" result="BackgroundImageFix"/>
<feColorMatrix in="SourceAlpha" type="matrix" values="0 0 0 0 0 0 0 0 0 0 0 0 0 0 0 0 0 0 127 0" result="hardAlpha"/>
<feOffset dx="2" dy="2"/>
<feGaussianBlur stdDeviation="2"/>
<feComposite in2="hardAlpha" operator="out"/>
<feColorMatrix type="matrix" values="0 0 0 0 1 0 0 0 0 1 0 0 0 0 1 0 0 0 0.12 0"/>
<feBlend mode="normal" in2="BackgroundImageFix" result="effect1_dropShadow_11_65"/>
<feBlend mode="normal" in="SourceGraphic" in2="effect1_dropShadow_11_65" result="shape"/>
</filter>
<linearGradient id="paint0_linear_11_65" x1="26.7177" y1="78.3912" x2="14.5156" y2="78.2405" gradientUnits="userSpaceOnUse">
<stop stop-color="#3640FF" stop-opacity="0.5"/>
<stop offset="0.0308253" stop-color="#3444FD" stop-opacity="0.4846"/>
<stop offset="0.469" stop-color="#1872E8" stop-opacity="0.2655"/>
<stop offset="0.8064" stop-color="#068EDB" stop-opacity="0.096823"/>
<stop offset="1" stop-color="#0099D6" stop-opacity="0"/>
</linearGradient>
<linearGradient id="paint1_linear_11_65" x1="16.347" y1="72.6738" x2="17.029" y2="78.9692" gradientUnits="userSpaceOnUse">
<stop stop-color="#B0E9FF"/>
<stop offset="0.2885" stop-color="#7BD9FF"/>
<stop offset="0.6184" stop-color="#45C9FE"/>
<stop offset="0.8656" stop-color="#24BFFE"/>
<stop offset="1" stop-color="#17BBFE"/>
</linearGradient>
<radialGradient id="paint2_radial_11_65" cx="0" cy="0" r="1" gradientUnits="userSpaceOnUse" gradientTransform="translate(34.1308 25.7892) scale(48.2546 48.2546)">
<stop stop-color="#FFE030"/>
<stop offset="1" stop-color="#FFB92E"/>
</radialGradient>
<radialGradient id="paint3_radial_11_65" cx="0" cy="0" r="1" gradientUnits="userSpaceOnUse" gradientTransform="translate(34.1304 25.7894) scale(37.9642 37.9642)">
<stop stop-color="#FFEA5F"/>
<stop offset="1" stop-color="#FFBC47" stop-opacity="0"/>
</radialGradient>
<linearGradient id="paint4_linear_11_65" x1="38.2081" y1="57.1686" x2="2.97008" y2="55.7457" gradientUnits="userSpaceOnUse">
<stop stop-color="#FF9D00" stop-opacity="0"/>
<stop offset="1" stop-color="#FF8000"/>
</linearGradient>
<radialGradient id="paint5_radial_11_65" cx="0" cy="0" r="1" gradientUnits="userSpaceOnUse" gradientTransform="translate(40.6135 59.0606) scale(10.6566)">
<stop offset="0.00132565" stop-color="#7A4400"/>
<stop offset="1" stop-color="#643800"/>
</radialGradient>
<linearGradient id="paint6_linear_11_65" x1="27.1065" y1="52.7551" x2="56.8976" y2="52.7551" gradientUnits="userSpaceOnUse">
<stop offset="0.00132565" stop-color="#3C2200"/>
<stop offset="1" stop-color="#512D00"/>
</linearGradient>
<radialGradient id="paint7_radial_11_65" cx="0" cy="0" r="1" gradientUnits="userSpaceOnUse" gradientTransform="translate(41.6934 51.861) scale(10.5219 10.522)">
<stop offset="0.00132565" stop-color="white"/>
<stop offset="1" stop-color="#A9BCBE"/>
</radialGradient>
<radialGradient id="paint8_radial_11_65" cx="0" cy="0" r="1" gradientUnits="userSpaceOnUse" gradientTransform="translate(42.0045 64.6974) scale(11.3696 2.89838)">
<stop stop-color="#FF0000"/>
<stop offset="1" stop-color="#C20000"/>
</radialGradient>
<linearGradient id="paint9_linear_11_65" x1="25.867" y1="27.5263" x2="25.742" y2="22.0681" gradientUnits="userSpaceOnUse">
<stop offset="0.00132565" stop-color="#3C2200"/>
<stop offset="1" stop-color="#7A4400"/>
</linearGradient>
<radialGradient id="paint10_radial_11_65" cx="0" cy="0" r="1" gradientUnits="userSpaceOnUse" gradientTransform="translate(26.3561 33.561) rotate(-2.88189) scale(7.73225 3.43584)">
<stop offset="0.00132565" stop-color="#7A4400"/>
<stop offset="1" stop-color="#643800"/>
</radialGradient>
<linearGradient id="paint11_linear_11_65" x1="26.6452" y1="25.0385" x2="26.6452" y2="35.0999" gradientUnits="userSpaceOnUse">
<stop offset="0.00132565" stop-color="#3C2200"/>
<stop offset="1" stop-color="#512D00"/>
</linearGradient>
<linearGradient id="paint12_linear_11_65" x1="58.1338" y1="27.5263" x2="58.2588" y2="22.0681" gradientUnits="userSpaceOnUse">
<stop offset="0.00132565" stop-color="#3C2200"/>
<stop offset="1" stop-color="#7A4400"/>
</linearGradient>
<radialGradient id="paint13_radial_11_65" cx="0" cy="0" r="1" gradientUnits="userSpaceOnUse" gradientTransform="translate(57.6383 33.5613) rotate(-177.118) scale(7.73225 3.43584)">
<stop offset="0.00132565" stop-color="#7A4400"/>
<stop offset="1" stop-color="#643800"/>
</radialGradient>
<linearGradient id="paint14_linear_11_65" x1="57.3553" y1="25.0385" x2="57.3553" y2="35.0999" gradientUnits="userSpaceOnUse">
<stop offset="0.00132565" stop-color="#3C2200"/>
<stop offset="1" stop-color="#512D00"/>
</linearGradient>
<linearGradient id="paint15_linear_11_65" x1="17.1246" y1="19.2522" x2="22.8881" y2="82.8087" gradientUnits="userSpaceOnUse">
<stop stop-color="#B0E9FF"/>
<stop offset="0.3331" stop-color="#B0E9FF"/>
<stop offset="0.4126" stop-color="#7BD9FF"/>
<stop offset="0.5034" stop-color="#45C9FE"/>
<stop offset="0.5715" stop-color="#24BFFE"/>
<stop offset="0.6085" stop-color="#17BBFE"/>
<stop offset="0.8891" stop-color="#17BBFE"/>
</linearGradient>
<linearGradient id="paint16_linear_11_65" x1="22.7027" y1="81.3994" x2="12.0777" y2="77.6495" gradientUnits="userSpaceOnUse">
<stop stop-color="#3640FF" stop-opacity="0.5"/>
<stop offset="0.0308253" stop-color="#3444FD" stop-opacity="0.4846"/>
<stop offset="0.469" stop-color="#1872E8" stop-opacity="0.2655"/>
<stop offset="0.8064" stop-color="#068EDB" stop-opacity="0.096823"/>
<stop offset="1" stop-color="#0099D6" stop-opacity="0"/>
</linearGradient>
<linearGradient id="paint17_linear_11_65" x1="22.8276" y1="38.9127" x2="18.1611" y2="61.7459" gradientUnits="userSpaceOnUse">
<stop stop-color="white" stop-opacity="0"/>
<stop offset="0.5" stop-color="white" stop-opacity="0.5"/>
<stop offset="1" stop-color="white" stop-opacity="0"/>
</linearGradient>
<linearGradient id="paint18_linear_11_65" x1="21.1269" y1="65.8382" x2="21.8769" y2="77.3381" gradientUnits="userSpaceOnUse">
<stop stop-color="white" stop-opacity="0"/>
<stop offset="0.5" stop-color="white" stop-opacity="0.5"/>
<stop offset="1" stop-color="white" stop-opacity="0"/>
</linearGradient>
<linearGradient id="paint19_linear_11_65" x1="20.4069" y1="71.4017" x2="20.4069" y2="31.0686" gradientUnits="userSpaceOnUse">
<stop stop-color="#17BBFE" stop-opacity="0"/>
<stop offset="0.5" stop-color="#0099D6" stop-opacity="0.5"/>
<stop offset="1" stop-color="#0099D6" stop-opacity="0"/>
</linearGradient>
<linearGradient id="paint20_linear_11_65" x1="57.2838" y1="78.3913" x2="69.4858" y2="78.2406" gradientUnits="userSpaceOnUse">
<stop stop-color="#3640FF" stop-opacity="0.5"/>
<stop offset="0.0308253" stop-color="#3444FD" stop-opacity="0.4846"/>
<stop offset="0.469" stop-color="#1872E8" stop-opacity="0.2655"/>
<stop offset="0.8064" stop-color="#068EDB" stop-opacity="0.096823"/>
<stop offset="1" stop-color="#0099D6" stop-opacity="0"/>
</linearGradient>
<linearGradient id="paint21_linear_11_65" x1="67.6545" y1="72.6739" x2="66.9724" y2="78.9692" gradientUnits="userSpaceOnUse">
<stop stop-color="#B0E9FF"/>
<stop offset="0.2885" stop-color="#7BD9FF"/>
<stop offset="0.6184" stop-color="#45C9FE"/>
<stop offset="0.8656" stop-color="#24BFFE"/>
<stop offset="1" stop-color="#17BBFE"/>
</linearGradient>
<linearGradient id="paint22_linear_11_65" x1="45.7932" y1="57.1687" x2="81.0311" y2="55.7457" gradientUnits="userSpaceOnUse">
<stop stop-color="#FF9D00" stop-opacity="0"/>
<stop offset="1" stop-color="#FF8000"/>
</linearGradient>
<linearGradient id="paint23_linear_11_65" x1="66.8768" y1="19.2524" x2="61.1134" y2="82.8087" gradientUnits="userSpaceOnUse">
<stop stop-color="#B0E9FF"/>
<stop offset="0.3331" stop-color="#B0E9FF"/>
<stop offset="0.4126" stop-color="#7BD9FF"/>
<stop offset="0.5034" stop-color="#45C9FE"/>
<stop offset="0.5715" stop-color="#24BFFE"/>
<stop offset="0.6085" stop-color="#17BBFE"/>
<stop offset="0.8891" stop-color="#17BBFE"/>
</linearGradient>
<linearGradient id="paint24_linear_11_65" x1="61.2988" y1="81.3994" x2="71.9237" y2="77.6495" gradientUnits="userSpaceOnUse">
<stop stop-color="#3640FF" stop-opacity="0.5"/>
<stop offset="0.0308253" stop-color="#3444FD" stop-opacity="0.4846"/>
<stop offset="0.469" stop-color="#1872E8" stop-opacity="0.2655"/>
<stop offset="0.8064" stop-color="#068EDB" stop-opacity="0.096823"/>
<stop offset="1" stop-color="#0099D6" stop-opacity="0"/>
</linearGradient>
<linearGradient id="paint25_linear_11_65" x1="61.1738" y1="38.9127" x2="65.8404" y2="61.746" gradientUnits="userSpaceOnUse">
<stop stop-color="white" stop-opacity="0"/>
<stop offset="0.5" stop-color="white" stop-opacity="0.5"/>
<stop offset="1" stop-color="white" stop-opacity="0"/>
</linearGradient>
<linearGradient id="paint26_linear_11_65" x1="62.8746" y1="65.8382" x2="62.1245" y2="77.3381" gradientUnits="userSpaceOnUse">
<stop stop-color="white" stop-opacity="0"/>
<stop offset="0.5" stop-color="white" stop-opacity="0.5"/>
<stop offset="1" stop-color="white" stop-opacity="0"/>
</linearGradient>
<linearGradient id="paint27_linear_11_65" x1="63.5945" y1="71.4017" x2="63.5945" y2="31.0687" gradientUnits="userSpaceOnUse">
<stop stop-color="#17BBFE" stop-opacity="0"/>
<stop offset="0.5" stop-color="#0099D6" stop-opacity="0.5"/>
<stop offset="1" stop-color="#0099D6" stop-opacity="0"/>
</linearGradient>
<radialGradient id="paint28_radial_11_65" cx="0" cy="0" r="1" gradientUnits="userSpaceOnUse" gradientTransform="translate(42.3446 74.5983) rotate(-90) scale(5.3333 16.6627)">
<stop stop-color="#A3541E" stop-opacity="0.5"/>
<stop offset="0.283" stop-color="#B26126" stop-opacity="0.3578"/>
<stop offset="0.8286" stop-color="#DA843C" stop-opacity="0.083632"/>
<stop offset="0.995" stop-color="#E89043" stop-opacity="0"/>
</radialGradient>
</defs>
</svg>
