<svg width="81" height="63" viewBox="0 0 81 63" fill="none" xmlns="http://www.w3.org/2000/svg">
<path d="M72.812 33.2288L71.2147 9.13566L60.1664 15.9243C54.7088 14.9926 53.2446 14.9926 48.985 12.9959C46.4559 11.7979 43.2613 12.5966 41.6639 13.5283C39.2679 10.9992 23.6939 14.7263 21.9634 15.525C17.3045 14.0608 10.3827 8.73633 10.3827 8.73633L7.98671 35.8911L11.1814 36.6897C11.4476 37.6215 12.2463 39.8844 12.2463 39.8844C9.31782 43.6115 12.7787 48.0042 16.1065 46.54C14.6423 50.2671 18.5025 53.728 21.5641 51.332C21.1647 54.7929 24.7588 57.322 27.421 54.926C26.223 59.0525 30.8819 62.114 33.6772 58.7862C35.6739 60.1174 37.5375 61.1822 39.1348 61.7147C41.9301 62.9127 44.9917 60.2505 44.4593 56.9227C47.6539 60.6498 52.4459 57.0558 51.3811 52.9293C54.9751 55.7247 59.3677 51.0658 57.1049 46.9393C61.0982 49.2022 64.5591 43.0791 60.6989 39.0857L72.812 33.2288Z" fill="#FFDEBB"/>
<path d="M16.3727 37.0892C18.3694 38.0209 19.7005 41.0825 17.5707 43.7447L16.639 44.8096C15.5741 46.1407 14.5092 46.5401 13.4443 46.5401C14.2429 46.9394 15.1747 46.9394 16.1065 46.5401C16.2396 46.1407 16.5058 45.6083 16.9052 45.209L17.837 44.1441C18.3694 43.4785 19.035 42.9461 19.5674 42.6798C20.6323 39.8845 18.7687 37.2223 16.3727 37.0892ZM31.5474 50.2672C33.6772 50.7996 35.2746 53.595 33.6772 56.6566L32.8785 57.8546C32.0799 59.3188 31.015 59.9843 29.9501 60.1174C31.4143 60.5168 33.0117 59.9843 34.0766 57.9877L34.8752 56.7897C36.8719 53.0625 34.3428 50.001 31.5474 50.2672ZM22.2296 49.2023L24.3594 45.8745C24.2263 44.011 22.629 42.4136 21.0316 42.2805C23.0283 43.2123 24.3594 46.2739 22.2296 48.9361L21.2979 50.001C20.233 51.3321 19.1681 51.7314 17.9701 51.7314C19.035 52.2639 20.233 52.1308 21.431 51.3321C21.5641 50.6665 21.8303 49.8679 22.2296 49.2023ZM27.9534 43.2123C30.0832 43.8779 31.5474 46.8063 29.6839 49.7348L27.1548 53.7281C26.223 55.1923 25.1581 55.7248 24.0932 55.7248C25.4243 56.1241 27.1548 55.7248 28.3528 53.8612L30.8819 49.8679C33.0117 46.407 30.6157 43.0792 27.9534 43.2123ZM45.6573 46.5401C45.7904 46.5401 47.3877 46.2739 47.9201 46.2739C45.9235 44.2772 42.7288 45.8745 40.8652 44.8096C42.1964 47.0725 44.9917 46.5401 45.2579 46.5401L48.4526 50.6665C51.1148 53.9943 48.985 57.8546 46.1897 58.2539C49.1181 59.1857 52.0466 56.1241 51.1148 52.7963C50.9817 52.6632 45.6573 46.5401 45.6573 46.5401ZM48.8519 38.8196C48.8519 38.8196 50.8486 38.4203 52.579 38.4203C50.5824 36.8229 47.5208 38.2872 45.5241 36.9561C46.3228 38.6865 48.0533 38.6865 48.5857 38.8196L54.7088 45.8745C57.5042 49.0692 55.5075 52.9294 52.7122 53.595C55.9068 54.5268 58.9684 50.4003 56.9717 46.8063C55.6406 46.2739 48.8519 38.8196 48.8519 38.8196Z" fill="#E0A07A"/>
<path d="M44.5924 54.1277C42.5957 52.5303 39.8003 53.7283 38.6023 52.9297C39.2679 54.7932 41.797 54.3939 41.9301 54.3939C44.193 57.8548 41.797 61.4488 39.0017 61.715C41.797 62.913 44.8586 60.2508 44.3261 56.923C44.193 56.7899 42.3295 54.3939 42.3295 54.3939C42.5957 54.2608 44.0599 54.1277 44.5924 54.1277ZM71.3478 30.9663C71.3478 30.9663 69.0849 35.6252 60.2995 38.1543C59.1015 36.6901 56.5724 33.7616 53.6439 31.2325C55.5075 30.8332 56.4393 29.3689 57.9035 29.1027C57.3711 28.5703 55.5075 28.8365 54.0433 29.3689C51.381 30.3007 45.2579 26.0411 45.2579 26.0411L40.1997 26.7067C36.6057 30.1676 28.8852 32.0312 28.4859 26.7067C28.2196 22.9796 36.3394 20.4505 38.8686 18.0545C42.0632 14.9929 44.8586 11.1327 50.0499 13.7949C54.3095 15.9247 56.0399 15.7916 61.8968 16.8565C63.8935 17.2558 65.2246 18.1876 66.6889 20.1842C65.4909 17.3889 63.7604 16.1909 61.6306 15.7916L70.9484 11.3989L71.0815 9.13599L60.0333 15.3922C54.9751 14.5936 53.1115 14.5936 48.985 12.5969C46.3228 11.2658 44.193 11.6651 42.4626 12.73C39.2679 10.8664 37.4043 11.2658 36.2063 11.532C32.4792 12.73 26.4892 12.8631 21.1647 14.9929C22.0965 15.2591 23.0283 15.5253 23.6939 15.5253C28.8852 13.928 34.3428 14.0611 36.8719 13.1293C37.6706 12.8631 39.2679 12.8631 40.9983 13.7949C39.9335 14.7267 39.0017 15.7916 37.9368 16.8565C35.4077 19.2525 27.6872 22.7134 28.2196 27.106C28.4859 29.2358 31.4143 34.8265 41.1315 28.5703L45.2579 28.0378C45.2579 28.0378 52.8453 31.6318 59.9002 39.8847C62.6955 43.0794 60.9651 46.5403 58.1697 47.339C61.7637 48.0045 64.8253 42.9463 61.3644 39.4854L69.7504 34.9596L71.3478 30.9663Z" fill="#E0A07A"/>
<path d="M68.9518 10.4673L73.3445 33.2294L69.7505 34.8267C67.8869 29.9016 65.0915 18.0546 65.7571 12.3308L68.9518 10.4673Z" fill="white"/>
<path d="M12.6456 39.3521C11.9801 37.7547 11.5807 35.625 11.5807 35.625L8.25293 33.3621L7.98671 35.8912L10.9152 36.6898C11.3145 38.021 11.7138 39.0859 12.2463 39.8845L12.6456 39.3521Z" fill="#E0A07A"/>
<path d="M5.99007 35.4917L13.1781 10.5999L16.5059 12.8627C17.0383 16.5899 10.9152 33.6281 8.6523 36.1573L5.99007 35.4917Z" fill="white"/>
<path d="M68.8187 10.334C67.7538 10.9996 71.614 34.0279 73.2113 33.3623C78.2696 31.0994 80.5325 30.4339 80.5325 30.4339V3.0129C80.3994 3.0129 77.3378 5.27579 68.8187 10.334ZM0.532471 0.75V34.6934C0.532471 34.6934 2.92848 35.0928 5.99004 35.7583C7.72049 36.1577 13.9767 11.1327 13.5774 10.7334C9.05161 7.6718 0.532471 0.75 0.532471 0.75Z" fill="#477BB8"/>
</svg>
