<svg width="80" height="85" viewBox="0 0 80 85" fill="none" xmlns="http://www.w3.org/2000/svg">
<path d="M37.5204 84.3427C20.5217 84.3427 2.16638 73.6817 2.16638 50.2837C2.16638 26.8856 20.5217 16.2246 37.5204 16.2246C46.9618 16.2246 55.677 19.3284 62.138 24.9946C69.1403 31.2158 72.8607 39.9858 72.8607 50.2837C72.8607 60.5815 69.1403 69.2967 62.138 75.5111C55.677 81.1773 46.9001 84.3427 37.5204 84.3427Z" fill="url(#paint0_radial_11_202)"/>
<path d="M66.7012 30.0376C70.0447 35.5874 71.7576 41.973 71.6411 48.4546C71.6411 58.7319 67.9207 67.4676 60.9184 73.682C54.4574 79.3482 45.6874 82.5136 36.3008 82.5136C25.2972 82.5136 13.7387 78.0396 6.94878 68.5365C13.5057 79.3002 25.8316 84.343 37.5204 84.343C46.9002 84.343 55.677 81.1776 62.138 75.5113C69.1403 69.2901 72.8607 60.5818 72.8607 50.2839C72.8607 42.5211 70.7436 35.6216 66.7012 30.0376Z" fill="#EB8F00"/>
<path opacity="0.8" d="M17.1028 59.1973C23.7248 59.1973 29.093 54.1358 29.093 47.8922C29.093 41.6486 23.7248 36.5872 17.1028 36.5872C10.4807 36.5872 5.11255 41.6486 5.11255 47.8922C5.11255 54.1358 10.4807 59.1973 17.1028 59.1973Z" fill="url(#paint1_radial_11_202)"/>
<path opacity="0.8" d="M58.4861 59.1973C65.1081 59.1973 70.4764 54.1358 70.4764 47.8922C70.4764 41.6486 65.1081 36.5872 58.4861 36.5872C51.8641 36.5872 46.4959 41.6486 46.4959 47.8922C46.4959 54.1358 51.8641 59.1973 58.4861 59.1973Z" fill="url(#paint2_radial_11_202)"/>
<path d="M10.3882 12.5383C13.0371 12.5383 15.1843 11.0045 15.1843 9.11254C15.1843 7.22054 13.0371 5.68677 10.3882 5.68677C7.73944 5.68677 5.59216 7.22054 5.59216 9.11254C5.59216 11.0045 7.73944 12.5383 10.3882 12.5383Z" fill="#FF00A2"/>
<path d="M30.5642 18.8901C31.688 17.7663 31.406 15.6624 29.9344 14.1907C28.4628 12.7191 26.3588 12.4371 25.235 13.5609C24.1112 14.6847 24.3932 16.7887 25.8648 18.2603C27.3364 19.7319 29.4404 20.0139 30.5642 18.8901Z" fill="#FD3B3B"/>
<path d="M45.2608 13.426C47.7744 11.4804 49.0798 8.95715 48.1765 7.79011C47.2732 6.62308 44.5032 7.25424 41.9896 9.19984C39.476 11.1454 38.1706 13.6687 39.0739 14.8358C39.9772 16.0028 42.7472 15.3716 45.2608 13.426Z" fill="#00EEFF"/>
<path d="M11.7298 58.6536C12.6802 58.1049 12.4536 55.9334 11.2238 53.8034C9.99398 51.6734 8.22665 50.3914 7.27633 50.9401C6.32602 51.4888 6.55259 53.6603 7.78239 55.7903C9.01219 57.9203 10.7795 59.2023 11.7298 58.6536Z" fill="#0048FF"/>
<path d="M60.062 78.3133C61.3864 78.3133 62.46 76.6262 62.46 74.545C62.46 72.4638 61.3864 70.7766 60.062 70.7766C58.7376 70.7766 57.6639 72.4638 57.6639 74.545C57.6639 76.6262 58.7376 78.3133 60.062 78.3133Z" fill="#F63BBE"/>
<path d="M73.7856 39.0741C75.7968 37.6583 77.0741 36.0089 76.6385 35.3901C76.2029 34.7713 74.2193 35.4173 72.2081 36.833C70.1969 38.2488 68.9196 39.8982 69.3552 40.517C69.7908 41.1358 71.7744 40.4898 73.7856 39.0741Z" fill="#00CC00"/>
<path d="M9.34705 81.7635C10.138 81.2445 9.76948 79.2849 8.52393 77.3866C7.27839 75.4883 5.62749 74.3702 4.83653 74.8892C4.04558 75.4081 4.4141 77.3677 5.65964 79.266C6.90519 81.1643 8.55609 82.2824 9.34705 81.7635Z" fill="#0048FF"/>
<path d="M4.3432 68.3754C6.60793 68.2147 8.38955 67.3194 8.32258 66.3758C8.2556 65.4321 6.36538 64.7975 4.10065 64.9582C1.83592 65.119 0.0542955 66.0142 0.121272 66.9579C0.188249 67.9015 2.07847 68.5362 4.3432 68.3754Z" fill="#7ACDED"/>
<path d="M10.4696 59.4016C13.1881 59.2207 15.3572 58.5537 15.3145 57.9119C15.2718 57.27 13.0334 56.8963 10.3149 57.0772C7.59643 57.2581 5.42728 57.9251 5.46999 58.567C5.51271 59.2088 7.75111 59.5825 10.4696 59.4016Z" fill="#FF82B2"/>
<path d="M75.4095 52.4142C74.8271 50.3999 73.4362 48.7144 71.5726 47.7552C68.4209 46.0423 64.4744 47.2139 62.7683 50.3656C62.7546 50.3862 62.7478 50.4067 62.7341 50.4273C61.309 53.1131 62.3161 56.4498 64.9951 57.8955C66.0571 58.4915 67.3041 58.6628 68.4894 58.3751C69.709 58.101 70.7367 57.2994 71.2985 56.1826C71.9083 54.8945 71.8535 53.3871 71.1615 52.1402C70.5997 51.0439 69.5103 50.3176 68.2838 50.2217C67.5781 50.208 67.0026 50.7698 66.9889 51.4756C66.9821 52.1127 67.448 52.6609 68.0783 52.7568C68.4277 52.7773 68.7429 52.9897 68.9005 53.3049C69.1403 53.7914 69.1882 54.3601 69.0375 54.8808C68.8046 55.3398 68.3798 55.6687 67.8728 55.7715C67.3178 55.9154 66.7285 55.84 66.2284 55.5659C65.5432 55.2028 65.0294 54.5862 64.7896 53.853C64.584 53.0994 64.6594 52.2977 64.9951 51.592C65.4747 50.6602 66.3175 49.9614 67.3246 49.6736C68.3318 49.3858 69.4006 49.4817 70.3393 49.9477C71.5657 50.6191 72.477 51.7565 72.8744 53.0994C73.2923 54.4491 73.1416 55.9085 72.4633 57.1418C71.1615 59.6083 68.6264 61.2527 64.9266 61.2527C62.8026 61.2527 50.1615 60.9101 50.1615 60.9101L50.3122 64.0618L64.7896 63.8563C69.106 63.8563 72.6688 62.1434 74.7243 58.3065C75.8068 56.5388 76.0535 54.3806 75.4095 52.4142Z" fill="url(#paint3_linear_11_202)"/>
<path d="M41.9054 62.5545C42.3233 62.9999 42.6453 63.5206 42.8646 64.0893L50.7096 64.0413C50.7096 63.0136 50.5726 61.9858 50.5726 60.8896C48.5171 60.8211 44.2829 60.7526 42.9674 60.7046C42.7755 61.4103 42.3987 62.0543 41.8643 62.5545H41.9054Z" fill="#7F0099"/>
<path d="M65.7487 36.3821L68.1468 36.7246L68.7634 34.3266L69.106 32.9563L55.3344 31.0378C61.5693 35.7654 65.3377 36.3821 65.7487 36.3821Z" fill="#FF4545"/>
<path d="M76.7797 2.53491L71.23 5.68662L69.8597 6.4403L75.615 7.26248C76.0261 5.54959 76.7797 2.53491 76.7797 2.53491Z" fill="#FF4545"/>
<path d="M64.5155 9.45508L58.8287 12.6753L73.6966 14.7993L74.6558 10.8939L64.5155 9.45508Z" fill="#FF4545"/>
<path d="M48.2773 18.6364H48.2088L71.8466 22.0621L72.7373 18.4308L53.4845 15.6902L48.2773 18.6364Z" fill="#FF4545"/>
<path d="M50.2642 26.5157L69.9967 29.3248L70.9559 25.625L47.181 22.1992C47.4551 22.9529 48.2773 24.4602 50.2642 26.5157Z" fill="#FF4545"/>
<path d="M53.4845 15.69L72.7374 18.4306L73.6966 14.7993L58.8287 12.6753L53.4845 15.69Z" fill="#FF9C9C"/>
<path d="M75.2039 8.77004C75.2039 8.77004 75.4095 7.81083 75.5465 7.33122L69.7912 6.50903L64.447 9.52372L74.5873 10.9625L75.2039 8.77004Z" fill="#FF9C9C"/>
<path d="M46.2218 19.7328L46.9755 21.9253C47.0029 22.0486 47.0509 22.1651 47.1125 22.2679L70.8874 25.6937L71.7781 22.0623L48.1403 18.7051L46.2218 19.7328Z" fill="#FF9C9C"/>
<path d="M55.0603 30.8324C55.1289 30.9009 55.2659 30.9695 55.3344 31.038L69.106 33.0249L69.9967 29.3936L50.2643 26.5845C51.7647 28.1055 53.368 29.5238 55.0603 30.8324Z" fill="#FF9C9C"/>
<path d="M76.7113 6.57749C78.5276 6.57749 80 5.10507 80 3.28874C80 1.47242 78.5276 0 76.7113 0C74.8949 0 73.4225 1.47242 73.4225 3.28874C73.4225 5.10507 74.8949 6.57749 76.7113 6.57749Z" fill="#C93737"/>
<path d="M43.1661 61.753C44.1732 60.8828 44.8036 59.6564 44.9269 58.3272C45.1188 56.9911 44.7214 55.6414 43.8307 54.6274C42.2342 52.5308 37.7944 53.0515 37.7944 53.0515C36.6023 53.0995 35.2251 53.6681 35.3964 55.0384C35.6225 55.8264 36.2597 56.4293 37.0545 56.6074C38.8085 57.0254 41.3093 56.6074 41.3778 58.3889C41.46 60.3895 38.3905 59.5673 38.1439 61.6844C37.8972 63.8016 41.3778 63.5207 41.3778 64.98C41.3778 66.0968 40.2336 66.2887 39.0277 66.5422C37.9931 66.7546 36.0062 67.0766 35.8486 68.2619C35.691 69.4473 36.3693 70.9066 39.1648 70.4818C43.5634 69.7967 45.0434 67.4055 45.0434 65.9256C45.0708 64.3223 44.3856 62.7944 43.1661 61.753Z" fill="#422B0D"/>
<path d="M28.1063 43.6648L28.0036 43.5346L27.7295 43.1852L27.3801 42.8084C27.243 42.6576 27.0786 42.4932 26.9142 42.3288C26.7429 42.1643 26.5647 42.0067 26.3729 41.8629C26.2016 41.7327 26.0235 41.6162 25.8316 41.5134C25.7015 41.4381 25.5576 41.3833 25.4068 41.3559C25.3589 41.349 25.3178 41.349 25.2698 41.3559C25.2698 41.3559 25.2698 41.3559 25.215 41.3559H25.3383H24.982H25.03C25.0026 41.349 24.982 41.349 24.9546 41.3559C24.8039 41.3833 24.66 41.4381 24.5298 41.5134C24.338 41.6162 24.1599 41.7327 23.9886 41.8629C23.8104 41.9999 23.6254 42.1643 23.4473 42.3288C23.1116 42.6576 22.8169 43.0139 22.6114 43.2263L22.2825 43.6169L22.1318 43.7882C21.2 44.8227 19.6378 44.9872 18.5073 44.1787C17.7879 43.6785 17.4179 42.8084 17.555 41.9382C17.555 41.9382 17.6029 41.6779 17.7262 41.2531C17.9181 40.5953 18.1922 39.965 18.5347 39.3758C19.0692 38.4028 19.7954 37.5464 20.6656 36.8612C21.2616 36.409 21.9194 36.0459 22.6251 35.7924C22.8169 35.717 23.0225 35.6554 23.2212 35.6074C23.4473 35.5389 23.6734 35.4909 23.9063 35.4567L24.3037 35.4019H24.6326H24.9889H25.4959H25.8248C26.0372 35.4019 26.2564 35.4567 26.4688 35.4909C26.8868 35.5663 27.291 35.6759 27.6884 35.8198C28.3941 36.0733 29.0519 36.4364 29.6479 36.8886C30.5318 37.5601 31.2786 38.4028 31.8267 39.3689C32.0254 39.7046 32.2036 40.0609 32.3475 40.424C32.4776 40.7255 32.5736 41.0475 32.6558 41.2873C32.738 41.5271 32.7311 41.6436 32.7585 41.7601V41.9177C32.9435 43.24 32.0186 44.4665 30.6962 44.6515C30.6688 44.6583 30.6414 44.6583 30.6209 44.6583C29.6685 44.8022 28.7024 44.4253 28.1063 43.6648Z" fill="#422B0D"/>
<path d="M53.553 43.6648L53.4502 43.5346L53.1762 43.1852L52.8679 42.8084C52.7308 42.6576 52.5664 42.4932 52.402 42.3288C52.2307 42.1643 52.0525 42.0067 51.8607 41.8629C51.6894 41.7327 51.5112 41.6162 51.3194 41.5134C51.1892 41.4381 51.0453 41.3833 50.9015 41.3559C50.8535 41.349 50.8124 41.349 50.7644 41.3559C50.7644 41.3559 50.7233 41.3559 50.7096 41.3559H50.8124H50.4561H50.5041H50.4287C50.2848 41.3833 50.1409 41.4381 50.0108 41.5134C49.8189 41.6162 49.6408 41.7327 49.4695 41.8629C49.2776 42.0067 49.0995 42.1643 48.9282 42.3288C48.5856 42.6576 48.2979 43.0139 48.0855 43.2263L47.7566 43.6169L47.6059 43.7882C46.6741 44.8227 45.1119 44.9872 43.9814 44.1787C43.262 43.6785 42.892 42.8084 43.029 41.9382C43.029 41.9382 43.077 41.6779 43.2072 41.2531C43.3785 40.5885 43.632 39.9444 43.9608 39.3415C44.509 38.3754 45.2558 37.5327 46.1396 36.8612C46.7357 36.409 47.4003 36.0459 48.106 35.7924C48.2979 35.717 48.4966 35.6554 48.6953 35.6074C48.9214 35.5389 49.1475 35.4909 49.3804 35.4567L49.7778 35.4019H50.1067H50.463H50.97H51.2989C51.5181 35.4019 51.7305 35.4567 51.9429 35.4909C53.1008 35.6896 54.1902 36.1624 55.1289 36.8612C56.0127 37.5327 56.7527 38.3754 57.3077 39.3415C57.5064 39.6772 57.6776 40.0335 57.8215 40.3966C57.9449 40.6775 58.0476 40.9653 58.1298 41.2599C58.1778 41.4175 58.2121 41.5751 58.2326 41.7327V41.8903C58.4245 43.2058 57.5064 44.4322 56.1909 44.6172C56.1635 44.624 56.136 44.624 56.1018 44.6309C55.1426 44.7816 54.1697 44.4185 53.553 43.6648Z" fill="#422B0D"/>
<defs>
<radialGradient id="paint0_radial_11_202" cx="0" cy="0" r="1" gradientUnits="userSpaceOnUse" gradientTransform="translate(37.5135 50.2837) scale(34.7091 34.7091)">
<stop offset="0.5" stop-color="#FDE030"/>
<stop offset="0.92" stop-color="#F7C02B"/>
<stop offset="1" stop-color="#F4A223"/>
</radialGradient>
<radialGradient id="paint1_radial_11_202" cx="0" cy="0" r="1" gradientUnits="userSpaceOnUse" gradientTransform="translate(17.1027 50.3034) scale(13.0507 11.719)">
<stop stop-color="#ED7770"/>
<stop offset="0.9" stop-color="#ED7770" stop-opacity="0"/>
</radialGradient>
<radialGradient id="paint2_radial_11_202" cx="0" cy="0" r="1" gradientUnits="userSpaceOnUse" gradientTransform="translate(80.6303 802.241) scale(13.3126)">
<stop stop-color="#ED7770"/>
<stop offset="0.9" stop-color="#ED7770" stop-opacity="0"/>
</radialGradient>
<linearGradient id="paint3_linear_11_202" x1="50.2574" y1="55.5149" x2="75.7383" y2="55.5149" gradientUnits="userSpaceOnUse">
<stop stop-color="#004054"/>
<stop offset="0.99" stop-color="#45A4FF"/>
</linearGradient>
</defs>
</svg>
